<?xml version="1.0" encoding="UTF-8" standalone="no"?><!DOCTYPE svg PUBLIC "-//W3C//DTD SVG 1.1//EN" "http://www.w3.org/Graphics/SVG/1.1/DTD/svg11.dtd"><svg width="100%" height="100%" viewBox="0 0 512 512" version="1.1" xmlns="http://www.w3.org/2000/svg" xmlns:xlink="http://www.w3.org/1999/xlink" xml:space="preserve" xmlns:serif="http://www.serif.com/" style="fill-rule:evenodd;clip-rule:evenodd;stroke-linejoin:round;stroke-miterlimit:2;"><g id="Icon"><rect x="0" y="0" width="512" height="512" style="fill:#f4f4f4;"/><rect x="0" y="0" width="512" height="105.931" style="fill:#ff8700;"/><path d="M0,105.931l0,167.724l52.966,0l-0,-52.965l105.931,-0l-0,52.965l44.137,0l0,-52.965l105.932,-0l-0,52.965l44.137,0l0,-52.965l105.931,-0l0,52.965l52.966,0l0,-167.724l-512,0Z" style="fill:#ecf0f1;fill-rule:nonzero;"/><g><path d="M450.207,440.449l-88.276,0c-4.882,0 -8.828,-3.955 -8.828,-8.828c0,-4.872 3.946,-8.827 8.828,-8.827l88.276,-0c4.882,-0 8.827,3.955 8.827,8.827c0,4.873 -3.945,8.828 -8.827,8.828Z" style="fill:#ff8700;fill-rule:nonzero;"/><path d="M450.207,405.139l-88.276,-0c-4.882,-0 -8.828,-3.955 -8.828,-8.828c0,-4.873 3.946,-8.828 8.828,-8.828l88.276,0c4.882,0 8.827,3.955 8.827,8.828c0,4.873 -3.945,8.828 -8.827,8.828Z" style="fill:#ff8700;fill-rule:nonzero;"/><path d="M450.207,369.828l-88.276,0c-4.882,0 -8.828,-3.954 -8.828,-8.827c0,-4.873 3.946,-8.828 8.828,-8.828l88.276,0c4.882,0 8.827,3.955 8.827,8.828c0,4.873 -3.945,8.827 -8.827,8.827Z" style="fill:#ff8700;fill-rule:nonzero;"/></g><g><path d="M300.138,440.449l-88.276,0c-4.882,0 -8.828,-3.955 -8.828,-8.828c0,-4.872 3.946,-8.827 8.828,-8.827l88.276,-0c4.882,-0 8.828,3.955 8.828,8.827c-0,4.873 -3.946,8.828 -8.828,8.828Z" style="fill:#ff8700;fill-rule:nonzero;"/><path d="M300.138,405.139l-88.276,-0c-4.882,-0 -8.828,-3.955 -8.828,-8.828c0,-4.873 3.946,-8.828 8.828,-8.828l88.276,0c4.882,0 8.828,3.955 8.828,8.828c-0,4.873 -3.946,8.828 -8.828,8.828Z" style="fill:#ff8700;fill-rule:nonzero;"/><path d="M300.138,369.828l-88.276,0c-4.882,0 -8.828,-3.954 -8.828,-8.827c0,-4.873 3.946,-8.828 8.828,-8.828l88.276,0c4.882,0 8.828,3.955 8.828,8.828c-0,4.873 -3.946,8.827 -8.828,8.827Z" style="fill:#ff8700;fill-rule:nonzero;"/></g><g><path d="M150.069,440.449l-88.276,0c-4.882,0 -8.827,-3.955 -8.827,-8.828c-0,-4.872 3.945,-8.827 8.827,-8.827l88.276,-0c4.882,-0 8.828,3.955 8.828,8.827c-0,4.873 -3.946,8.828 -8.828,8.828Z" style="fill:#ff8700;fill-rule:nonzero;"/><path d="M150.069,405.139l-88.276,-0c-4.882,-0 -8.827,-3.955 -8.827,-8.828c-0,-4.873 3.945,-8.828 8.827,-8.828l88.276,0c4.882,0 8.828,3.955 8.828,8.828c-0,4.873 -3.946,8.828 -8.828,8.828Z" style="fill:#ff8700;fill-rule:nonzero;"/><path d="M150.069,369.828l-88.276,0c-4.882,0 -8.827,-3.954 -8.827,-8.827c-0,-4.873 3.945,-8.828 8.827,-8.828l88.276,0c4.882,0 8.828,3.955 8.828,8.828c-0,4.873 -3.946,8.827 -8.828,8.827Z" style="fill:#ff8700;fill-rule:nonzero;"/></g><g><path d="M450.207,300.138l-88.276,-0c-4.882,-0 -8.828,-3.955 -8.828,-8.828c0,-4.872 3.946,-8.827 8.828,-8.827l88.276,-0c4.882,-0 8.827,3.955 8.827,8.827c0,4.873 -3.945,8.828 -8.827,8.828Z" style="fill:#ff8700;fill-rule:nonzero;"/><path d="M450.207,264.828l-88.276,-0c-4.882,-0 -8.828,-3.955 -8.828,-8.828c0,-4.873 3.946,-8.828 8.828,-8.828l88.276,0c4.882,0 8.827,3.955 8.827,8.828c0,4.873 -3.945,8.828 -8.827,8.828Z" style="fill:#ff8700;fill-rule:nonzero;"/><path d="M450.207,229.517l-88.276,0c-4.882,0 -8.828,-3.955 -8.828,-8.827c0,-4.873 3.946,-8.828 8.828,-8.828l88.276,0c4.882,0 8.827,3.955 8.827,8.828c0,4.872 -3.945,8.827 -8.827,8.827Z" style="fill:#ff8700;fill-rule:nonzero;"/></g><g><path d="M300.138,300.138l-88.276,-0c-4.882,-0 -8.828,-3.955 -8.828,-8.828c0,-4.872 3.946,-8.827 8.828,-8.827l88.276,-0c4.882,-0 8.828,3.955 8.828,8.827c-0,4.873 -3.946,8.828 -8.828,8.828Z" style="fill:#ff8700;fill-rule:nonzero;"/><path d="M300.138,264.828l-88.276,-0c-4.882,-0 -8.828,-3.955 -8.828,-8.828c0,-4.873 3.946,-8.828 8.828,-8.828l88.276,0c4.882,0 8.828,3.955 8.828,8.828c-0,4.873 -3.946,8.828 -8.828,8.828Z" style="fill:#ff8700;fill-rule:nonzero;"/><path d="M300.138,229.517l-88.276,0c-4.882,0 -8.828,-3.955 -8.828,-8.827c0,-4.873 3.946,-8.828 8.828,-8.828l88.276,0c4.882,0 8.828,3.955 8.828,8.828c-0,4.872 -3.946,8.827 -8.828,8.827Z" style="fill:#ff8700;fill-rule:nonzero;"/></g><g><path d="M150.069,300.138l-88.276,-0c-4.882,-0 -8.827,-3.955 -8.827,-8.828c-0,-4.872 3.945,-8.827 8.827,-8.827l88.276,-0c4.882,-0 8.828,3.955 8.828,8.827c-0,4.873 -3.946,8.828 -8.828,8.828Z" style="fill:#ff8700;fill-rule:nonzero;"/><path d="M150.069,264.828l-88.276,-0c-4.882,-0 -8.827,-3.955 -8.827,-8.828c-0,-4.873 3.945,-8.828 8.827,-8.828l88.276,0c4.882,0 8.828,3.955 8.828,8.828c-0,4.873 -3.946,8.828 -8.828,8.828Z" style="fill:#ff8700;fill-rule:nonzero;"/><path d="M150.069,229.517l-88.276,0c-4.882,0 -8.827,-3.955 -8.827,-8.827c-0,-4.873 3.945,-8.828 8.827,-8.828l88.276,0c4.882,0 8.828,3.955 8.828,8.828c-0,4.872 -3.946,8.827 -8.828,8.827Z" style="fill:#ff8700;fill-rule:nonzero;"/></g></g></svg>