<?xml version="1.0" encoding="UTF-8" standalone="no"?><!DOCTYPE svg PUBLIC "-//W3C//DTD SVG 1.1//EN" "http://www.w3.org/Graphics/SVG/1.1/DTD/svg11.dtd"><svg width="100%" height="100%" viewBox="0 0 512 512" version="1.1" xmlns="http://www.w3.org/2000/svg" xmlns:xlink="http://www.w3.org/1999/xlink" xml:space="preserve" style="fill-rule:evenodd;clip-rule:evenodd;stroke-linejoin:round;stroke-miterlimit:1.41421;"><rect x="0" y="0" width="512" height="512" style="fill:#ecf0f1;"/><path d="M414.897,128l-203.035,0c-4.873,0 -8.828,-3.946 -8.828,-8.828c0,-4.881 3.955,-8.827 8.828,-8.827l203.035,0c4.872,0 8.827,3.946 8.827,8.827c0,4.882 -3.955,8.828 -8.827,8.828Z" style="fill:#bdc3c7;fill-rule:nonzero;"/><path d="M414.897,269.241l-203.035,0c-4.873,0 -8.828,-3.946 -8.828,-8.827c0,-4.882 3.955,-8.828 8.828,-8.828l203.035,0c4.872,0 8.827,3.946 8.827,8.828c0,4.881 -3.955,8.827 -8.827,8.827Z" style="fill:#bdc3c7;fill-rule:nonzero;"/><path d="M414.897,410.483l-203.035,0c-4.873,0 -8.828,-3.946 -8.828,-8.828c0,-4.881 3.955,-8.827 8.828,-8.827l203.035,0c4.872,0 8.827,3.946 8.827,8.827c0,4.882 -3.955,8.828 -8.827,8.828Z" style="fill:#bdc3c7;fill-rule:nonzero;"/><g><rect x="88.276" y="83.862" width="70.621" height="70.621" style="fill:#ff8700;"/><path d="M167.724,163.31l-88.276,0l0,-88.276l88.276,0l0,88.276Zm-70.621,-17.655l52.966,0l0,-52.965l-52.966,0l0,52.965Z" style="fill:#ff8700;fill-rule:nonzero;"/></g><g><rect x="88.276" y="225.103" width="70.621" height="70.621" style="fill:#ff8700;"/><path d="M167.724,304.552l-88.276,0l0,-88.276l88.276,0l0,88.276Zm-70.621,-17.655l52.966,0l0,-52.966l-52.966,0l0,52.966Z" style="fill:#ff8700;fill-rule:nonzero;"/></g><g><rect x="88.276" y="366.345" width="70.621" height="70.621" style="fill:#ff8700;"/><path d="M167.724,445.793l-88.276,0l0,-88.276l88.276,0l0,88.276Zm-70.621,-17.655l52.966,0l0,-52.966l-52.966,0l0,52.966Z" style="fill:#ff8700;fill-rule:nonzero;"/></g></svg>