<?xml version="1.0" encoding="UTF-8" standalone="no"?><!DOCTYPE svg PUBLIC "-//W3C//DTD SVG 1.1//EN" "http://www.w3.org/Graphics/SVG/1.1/DTD/svg11.dtd"><svg width="100%" height="100%" viewBox="0 0 512 512" version="1.1" xmlns="http://www.w3.org/2000/svg" xmlns:xlink="http://www.w3.org/1999/xlink" xml:space="preserve" xmlns:serif="http://www.serif.com/" style="fill-rule:evenodd;clip-rule:evenodd;stroke-linejoin:round;stroke-miterlimit:2;"><g id="Icon"><path d="M369.184,0l-316.671,0l-0,512l406.974,0l0,-421.695l-90.303,-90.305Z" style="fill:#ff8700;fill-rule:nonzero;"/><path d="M369.184,0l-113.184,0l0,512l203.487,0l0,-421.695l-90.303,-90.305Z" style="fill:#ff8700;fill-rule:nonzero;"/><path d="M369.184,0l0,90.585l90.303,-0.28l-90.303,-90.305Z" style="fill:#f7a831;fill-rule:nonzero;"/><g><path d="M299.865,308.513l0,13.128c0,25.336 -20.613,45.949 -45.949,45.949c-25.336,-0 -45.949,-20.613 -45.949,-45.949l0,-13.128l-39.385,-0l0,13.128c0,47.053 38.281,85.333 85.333,85.333c47.052,-0 85.333,-38.281 85.333,-85.333l0,-13.128l-39.383,-0Z" style="fill:#fff;fill-rule:nonzero;"/><path d="M207.968,269.128l-0,-13.128c-0,-25.336 20.613,-45.949 45.949,-45.949c25.336,0 45.949,20.613 45.949,45.949l-0,13.128l39.385,0l-0,-13.128c-0,-47.053 -38.281,-85.333 -85.333,-85.333c-47.052,0 -85.335,38.28 -85.335,85.333l-0,13.128l39.385,0Z" style="fill:#fff;fill-rule:nonzero;"/><rect x="234.22" y="242.872" width="39.385" height="91.897" style="fill:#fff;"/></g></g></svg>