<?xml version="1.0" encoding="iso-8859-1"?>
<!-- Generator: Adobe Illustrator 19.0.0, SVG Export Plug-In . SVG Version: 6.00 Build 0)  -->
<svg xmlns="http://www.w3.org/2000/svg" xmlns:xlink="http://www.w3.org/1999/xlink" version="1.1" id="Layer_1" x="0px" y="0px" viewBox="0 0 512 512" style="enable-background:new 0 0 512 512;" xml:space="preserve" width="512px" height="512px">
<g>
	<g>
		<polygon points="369.182,0 367.59,0 367.59,91.897 459.487,91.897 459.487,90.305   " fill="#ff8700"/>
	</g>
</g>
<g>
	<g>
		<path d="M328.205,131.282V0H52.513v512h406.974V131.282H328.205z M341.333,321.641c0,47.053-38.281,85.333-85.333,85.333    s-85.333-38.281-85.333-85.333v-13.128h39.385v13.128c0,25.336,20.613,45.949,45.949,45.949s45.949-20.613,45.949-45.949v-13.128    h39.385V321.641z M236.308,334.769v-91.897h39.385v91.897H236.308z M341.333,269.128h-39.385V256    c0-25.336-20.613-45.949-45.949-45.949S210.051,230.664,210.051,256v13.128h-39.385V256c0-47.053,38.281-85.333,85.333-85.333    s85.333,38.281,85.333,85.333V269.128z" fill="#ff8700"/>
	</g>
</g>
<g>
</g>
<g>
</g>
<g>
</g>
<g>
</g>
<g>
</g>
<g>
</g>
<g>
</g>
<g>
</g>
<g>
</g>
<g>
</g>
<g>
</g>
<g>
</g>
<g>
</g>
<g>
</g>
<g>
</g>
</svg>
