<?xml version="1.0" encoding="iso-8859-1"?>
<!-- Generator: Adobe Illustrator 19.0.0, SVG Export Plug-In . SVG Version: 6.00 Build 0)  -->
<svg xmlns="http://www.w3.org/2000/svg" xmlns:xlink="http://www.w3.org/1999/xlink" version="1.1" id="Layer_1" x="0px" y="0px" viewBox="0 0 512 512" style="enable-background:new 0 0 512 512;" xml:space="preserve" width="512px" height="512px">
<g>
	<g>
		<path d="M369.182,0H52.513v512h406.974V90.305L369.182,0z M367.59,54.105l37.792,37.792H367.59V54.105z M420.103,472.615H91.897    V39.385h236.308v91.897h91.897V472.615z" fill="#ff8700"/>
	</g>
</g>
<g>
	<g>
		<path d="M256,170.667c-47.053,0-85.333,38.281-85.333,85.333v13.128h39.385V256c0-25.336,20.613-45.949,45.949-45.949    s45.949,20.613,45.949,45.949v13.128h39.385V256C341.333,208.947,303.053,170.667,256,170.667z" fill="#ff8700"/>
	</g>
</g>
<g>
	<g>
		<path d="M301.949,308.513v13.128c0,25.336-20.613,45.949-45.949,45.949s-45.949-20.613-45.949-45.949v-13.128h-39.385v13.128    c0,47.053,38.281,85.333,85.333,85.333s85.333-38.281,85.333-85.333v-13.128H301.949z" fill="#ff8700"/>
	</g>
</g>
<g>
	<g>
		<polygon points="236.308,242.872 236.308,269.128 236.308,308.513 236.308,334.769 275.692,334.769 275.692,308.513     275.692,269.128 275.692,242.872   " fill="#ff8700"/>
	</g>
</g>
<g>
</g>
<g>
</g>
<g>
</g>
<g>
</g>
<g>
</g>
<g>
</g>
<g>
</g>
<g>
</g>
<g>
</g>
<g>
</g>
<g>
</g>
<g>
</g>
<g>
</g>
<g>
</g>
<g>
</g>
</svg>
